<svg xmlns="http://www.w3.org/2000/svg" xmlns:xlink="http://www.w3.org/1999/xlink" width="1080" zoomAndPan="magnify" viewBox="0 0 810 809.999993" height="1080" preserveAspectRatio="xMidYMid meet" version="1.2"><defs><clipPath id="c7e5069551"><path d="M 53 39.265625 L 757 39.265625 L 757 770.515625 L 53 770.515625 Z M 53 39.265625 "/></clipPath></defs><g id="ae2eb30778"><g clip-rule="nonzero" clip-path="url(#c7e5069551)"><path style=" stroke:none;fill-rule:nonzero;fill:#000000;fill-opacity:1;" d="M 149.597656 135.015625 L 149.597656 395.902344 L 225.949219 395.902344 L 225.949219 216.199219 L 756.925781 216.199219 L 756.925781 311.953125 L 321.734375 311.953125 L 321.734375 395.902344 L 595.210938 395.902344 L 595.210938 490.964844 L 321.734375 490.964844 L 321.734375 597.824219 L 225.949219 597.824219 L 225.949219 490.964844 L 53.121094 490.964844 L 53.121094 134.691406 C 53.121094 81.734375 95.945312 39.265625 148.90625 39.265625 L 661.140625 39.265625 C 714.101562 39.265625 756.925781 81.558594 756.925781 134.5 L 756.925781 135.015625 Z M 660.445312 675.515625 L 149.597656 675.515625 L 149.597656 572.132812 L 53.121094 572.132812 L 53.121094 674.925781 C 53.121094 727.867188 95.945312 770.574219 148.90625 770.574219 L 661.140625 770.574219 C 714.101562 770.574219 756.925781 727.867188 756.925781 674.925781 L 756.925781 395.902344 L 660.445312 395.902344 Z M 660.445312 675.515625 "/></g></g></svg>